<svg width="100" height="100" viewBox="0 0 100 100" fill="none" xmlns="http://www.w3.org/2000/svg">
<rect width="100" height="100" fill="#AECAFF" fill-opacity="0.8"/>
<path d="M48.8197 59.4337L52.6617 55.5414C49.6986 55.2903 47.5643 54.3109 46.0323 52.7791C41.7886 48.5351 41.7886 42.5334 46.0072 38.3399L54.3443 29.9777C58.5883 25.7589 64.5649 25.7338 68.8086 29.9777C73.0774 34.2467 73.0274 40.2231 68.8337 44.442L64.5649 48.6857C65.3683 50.544 65.6446 52.804 65.1926 54.7629L72.3746 47.606C78.552 41.4537 78.5772 32.6646 72.3494 26.4369C66.0966 20.1841 57.3577 20.2344 51.1803 26.4118L42.4415 35.1507C36.264 41.328 36.2389 50.092 42.4666 56.3197C43.9229 57.8014 45.932 58.9063 48.8197 59.4337ZM51.1552 38.2143L47.3132 42.1066C50.2763 42.3829 52.4109 43.3371 53.9426 44.8689C58.2114 49.1129 58.1863 55.1143 53.9677 59.3331L45.6306 67.6703C41.3869 71.914 35.4102 71.914 31.1914 67.6703C26.9225 63.4011 26.9476 57.4497 31.1663 53.2311L35.4102 48.962C34.6066 47.1289 34.3555 44.8689 34.7824 42.8851L27.6005 50.0669C21.423 56.2194 21.3979 64.9831 27.6256 71.2109C33.8784 77.4637 42.6172 77.4134 48.7946 71.2611L57.5335 62.4971C63.7109 56.3197 63.736 47.5557 57.5083 41.328C56.052 39.8717 54.068 38.7669 51.1552 38.2143Z" fill="#206CFF"/>
</svg>

